<svg width="25" height="24" viewBox="0 0 25 24" fill="none" xmlns="http://www.w3.org/2000/svg">
<path d="M11.7976 1.0215C12.0491 0.573722 12.6938 0.573722 12.9453 1.0215L16.342 7.06759C16.436 7.23494 16.5984 7.35291 16.7866 7.39061L23.5864 8.75266C24.09 8.85353 24.2892 9.46661 23.941 9.84422L19.2405 14.943C19.1104 15.0841 19.0483 15.275 19.0707 15.4656L19.8765 22.3535C19.9362 22.8636 19.4147 23.2425 18.948 23.0281L12.6462 20.1332C12.4718 20.0531 12.2711 20.0531 12.0967 20.1332L5.79494 23.0281C5.32823 23.2425 4.80672 22.8636 4.8664 22.3535L5.67227 15.4656C5.69457 15.275 5.63255 15.0841 5.50245 14.943L0.801894 9.84422C0.453768 9.46661 0.652967 8.85353 1.15656 8.75266L7.95636 7.39061C8.14457 7.35291 8.30694 7.23494 8.40095 7.06759L11.7976 1.0215Z" fill="#6100FF"/>
</svg>
